<svg width="26" height="26" viewBox="0 0 26 26" fill="none" xmlns="http://www.w3.org/2000/svg">
<path d="M24.3855 25.2739L18.7405 19.6439C14.525 23.3546 8.05525 23.2083 4.00477 19.187C-0.192344 15.0011 -0.192344 8.18305 4.00477 3.99717C8.20188 -0.188712 15.0382 -0.188712 19.2353 3.99717C23.2675 8.01854 23.4324 14.471 19.6935 18.6934L25.3385 24.3234L24.3855 25.2739ZM4.97615 18.2365C8.64175 21.8923 14.6167 21.8923 18.2823 18.2365C21.9479 14.5807 21.9479 8.62174 18.2823 4.96595C14.6167 1.31016 8.64175 1.31016 4.97615 4.96595C1.31055 8.62174 1.31055 14.5624 4.97615 18.2365Z" fill="#343B4A"/>
</svg>
