<svg width="24" height="34" viewBox="0 0 24 34" fill="none" xmlns="http://www.w3.org/2000/svg">
<path d="M22.7658 10.3613H19.1002V7.25392C19.1002 3.74436 16.2411 0.911118 12.7404 0.911118H10.8893C7.38868 0.911118 4.52951 3.76264 4.52951 7.25392V10.3613H0.863917C0.497358 10.3613 0.185791 10.6721 0.185791 11.0377V32.8993C0.185791 33.2649 0.497358 33.5756 0.863917 33.5756H22.7842C23.1507 33.5756 23.4623 33.2649 23.4623 32.8993V11.0377C23.444 10.6721 23.1507 10.3613 22.7658 10.3613ZM5.86746 7.25392C5.86746 4.4938 8.1218 2.26377 10.871 2.26377H12.7221C15.4896 2.26377 17.7256 4.51208 17.7256 7.25392V10.3613H5.84913V7.25392H5.86746ZM22.0877 32.223H1.52373V11.714H5.18932H18.4221H22.0877V32.223ZM15.6179 18.5686L16.571 19.5191L10.7427 25.3318C10.5411 25.5329 10.2845 25.6243 10.0279 25.6243C9.77131 25.6243 9.51472 25.5329 9.31312 25.3318L6.71054 22.7179L7.6636 21.7674L10.0279 24.1254L15.6179 18.5686Z" fill="#343B4A"/>
</svg>
