<svg width="33" height="32" viewBox="0 0 33 32" fill="none" xmlns="http://www.w3.org/2000/svg">
<path d="M17.2604 16.0177C12.8617 16.0177 9.28771 12.4533 9.28771 8.06634C9.28771 3.67939 12.8617 0.13327 17.2604 0.13327C21.6591 0.13327 25.233 3.69767 25.233 8.08462C25.233 12.4716 21.6408 16.0177 17.2604 16.0177ZM17.2604 1.48591C13.6131 1.48591 10.6623 4.44711 10.6623 8.06634C10.6623 11.6856 13.6314 14.6468 17.2604 14.6468C20.8893 14.6468 23.8584 11.6856 23.8584 8.06634C23.8584 4.44711 20.8893 1.48591 17.2604 1.48591ZM32.5459 31.2623H0.948486V27.2044C0.948486 21.5928 5.51215 17.0413 11.1388 17.0413H22.3556C27.9822 17.0413 32.5459 21.5928 32.5459 27.2044V31.2623ZM2.30476 29.9097H31.1713V27.2044C31.1713 22.3422 27.2125 18.394 22.3372 18.394H11.1205C6.24527 18.394 2.28643 22.3422 2.28643 27.2044V29.9097H2.30476Z" fill="#343B4A"/>
</svg>
