<svg width="33" height="28" viewBox="0 0 33 28" fill="none" xmlns="http://www.w3.org/2000/svg">
<path d="M16.7565 27.5588C16.6282 27.5588 16.4999 27.5222 16.3899 27.4491C11.0015 24.0126 1.76423 17.2494 0.627892 10.541C0.243005 8.29272 0.792835 6.2272 2.22242 4.38103C4.00023 2.11444 6.10794 0.853188 8.47225 0.597283C11.9912 0.231703 15.1803 2.24239 16.7382 3.4488C18.2961 2.24239 21.4851 0.231703 25.0041 0.597283C27.3684 0.853188 29.4761 2.11444 31.2539 4.38103C32.7018 6.20893 33.2333 8.29272 32.8484 10.541C31.7121 17.2494 22.4748 24.0126 17.0864 27.4491C17.0131 27.5222 16.8848 27.5588 16.7565 27.5588ZM9.352 1.91337C9.11374 1.91337 8.87547 1.93165 8.61888 1.94992C6.63946 2.15099 4.84332 3.26601 3.28545 5.22186C2.0758 6.7573 1.63592 8.42068 1.9475 10.3034C2.97386 16.3537 11.4964 22.6965 16.7382 26.0599C21.98 22.6783 30.4841 16.3537 31.5288 10.3034C31.8404 8.42068 31.4189 6.7573 30.1909 5.22186C28.6513 3.26601 26.8552 2.15099 24.8575 1.94992C21.4851 1.58435 18.351 3.85094 17.1597 4.838C16.9031 5.03907 16.5366 5.03907 16.2983 4.838C15.217 3.92406 12.4494 1.91337 9.352 1.91337Z" fill="#343B4A"/>
</svg>
